<!-- Generated by IcoMoon.io -->
<svg version="1.1" xmlns="http://www.w3.org/2000/svg" width="34" height="32" viewBox="0 0 34 32">
<title>company-2</title>
<path fill="#8e8f99" d="M5.315 31.394c0.013 0 0.025 0.003 0.036 0.008 0.012 0.004 0.022 0.010 0.031 0.018l-0-0 0.172 0.162c-0.135 0.131-0.296 0.235-0.474 0.304l-0.010 0.003c-0.219 0.078-0.453 0.116-0.688 0.11-0.011 0-0.023 0-0.036 0-0.219 0-0.429-0.038-0.624-0.107l0.013 0.004c-0.188-0.067-0.35-0.166-0.487-0.291l0.001 0.001c-0.133-0.123-0.239-0.273-0.311-0.441l-0.003-0.008c-0.070-0.165-0.11-0.358-0.11-0.559 0-0.006 0-0.012 0-0.018v0.001c-0-0.006-0-0.012-0-0.019 0-0.203 0.044-0.395 0.122-0.568l-0.003 0.009c0.075-0.167 0.189-0.32 0.334-0.449 0.146-0.125 0.318-0.225 0.506-0.29l0.011-0.003c0.192-0.065 0.414-0.103 0.644-0.103 0.008 0 0.015 0 0.023 0h-0.001c0.211-0.004 0.421 0.028 0.618 0.094 0.171 0.064 0.328 0.151 0.464 0.26l-0.144 0.173c-0.010 0.012-0.022 0.023-0.036 0.031l-0.001 0c-0.014 0.009-0.032 0.014-0.050 0.014-0.003 0-0.006-0-0.009-0l0 0c-0.023-0.001-0.045-0.008-0.063-0.019l0.001 0-0.078-0.046-0.107-0.059c-0.099-0.048-0.213-0.084-0.333-0.103l-0.007-0.001c-0.071-0.012-0.152-0.018-0.235-0.018-0.008 0-0.015 0-0.023 0h0.001c-0.005-0-0.011-0-0.017-0-0.165 0-0.324 0.028-0.471 0.080l0.010-0.003c-0.145 0.050-0.269 0.124-0.376 0.218l0.001-0.001c-0.108 0.101-0.19 0.219-0.244 0.347-0.056 0.13-0.088 0.282-0.088 0.441 0 0.005 0 0.011 0 0.016v-0.001c-0 0.005-0 0.011-0 0.017 0 0.161 0.032 0.314 0.091 0.454l-0.003-0.008c0.111 0.263 0.325 0.465 0.59 0.556l0.007 0.002c0.14 0.050 0.291 0.075 0.443 0.073 0.088 0.002 0.176-0.004 0.263-0.015 0.219-0.022 0.414-0.108 0.571-0.239l-0.002 0.001c0.022-0.018 0.051-0.029 0.082-0.030h0zM10.291 30.579c0.003 0.195-0.037 0.39-0.116 0.573-0.077 0.176-0.187 0.324-0.323 0.444l-0.001 0.001c-0.144 0.126-0.317 0.226-0.509 0.291-0.196 0.065-0.421 0.103-0.655 0.103s-0.459-0.038-0.67-0.107l0.015 0.004c-0.196-0.068-0.365-0.168-0.509-0.294l0.002 0.002c-0.137-0.122-0.248-0.272-0.324-0.441l-0.003-0.008c-0.074-0.169-0.117-0.366-0.117-0.574s0.043-0.404 0.12-0.583l-0.004 0.010c0.073-0.167 0.185-0.32 0.328-0.451 0.144-0.123 0.317-0.219 0.507-0.281 0.421-0.14 0.888-0.14 1.31 0 0.191 0.066 0.364 0.165 0.508 0.293 0.272 0.243 0.442 0.594 0.442 0.985 0 0.012-0 0.024-0 0.036l0-0.002zM9.839 30.579c0.004-0.156-0.023-0.312-0.081-0.46-0.105-0.267-0.32-0.471-0.588-0.559l-0.007-0.002c-0.142-0.048-0.306-0.076-0.476-0.076s-0.334 0.028-0.487 0.079l0.011-0.003c-0.141 0.049-0.263 0.124-0.365 0.218l0.001-0.001c-0.1 0.093-0.179 0.208-0.23 0.337l-0.002 0.006c-0.109 0.3-0.109 0.621 0 0.921 0.048 0.127 0.128 0.244 0.233 0.344 0.101 0.094 0.226 0.168 0.365 0.215 0.307 0.098 0.645 0.098 0.952 0 0.138-0.048 0.263-0.122 0.364-0.215 0.104-0.1 0.182-0.218 0.231-0.344 0.058-0.148 0.086-0.304 0.081-0.46zM13.687 31.063l0.044 0.103c0.017-0.037 0.033-0.070 0.050-0.103 0.016-0.035 0.035-0.069 0.056-0.101l1.101-1.709c0.022-0.030 0.041-0.048 0.062-0.055 0.022-0.006 0.047-0.009 0.074-0.009 0.006 0 0.012 0 0.018 0l-0.001-0h0.325v2.781h-0.386v-2.131c-0.001-0.014-0.002-0.031-0.002-0.048s0.001-0.034 0.002-0.050l-0 0.002-1.107 1.733c-0.015 0.027-0.037 0.049-0.064 0.063l-0.001 0c-0.027 0.015-0.059 0.023-0.093 0.023-0 0-0.001 0-0.001 0h-0.062c-0.001 0-0.002 0-0.002 0-0.034 0-0.066-0.009-0.094-0.024l0.001 0c-0.027-0.014-0.049-0.036-0.064-0.062l-0-0.001-1.139-1.745v2.232h-0.373v-2.775h0.325c0.004-0 0.009-0 0.014-0 0.027 0 0.053 0.004 0.078 0.010l-0.002-0c0.026 0.011 0.047 0.029 0.060 0.052l0 0.001 1.124 1.712c0.023 0.031 0.041 0.066 0.057 0.1zM17.83 30.924v1.041h-0.431v-2.777h0.96c0.182-0.003 0.363 0.017 0.537 0.061 0.14 0.034 0.268 0.092 0.379 0.172 0.092 0.072 0.165 0.163 0.214 0.269l0.002 0.004c0.051 0.113 0.076 0.233 0.073 0.355 0 0.004 0 0.008 0 0.012 0 0.253-0.122 0.478-0.31 0.619l-0.002 0.001c-0.109 0.082-0.236 0.145-0.375 0.182l-0.008 0.002c-0.167 0.045-0.343 0.067-0.518 0.064l-0.521-0.008zM17.83 30.626h0.521c0.113 0.001 0.226-0.013 0.333-0.043 0.093-0.026 0.173-0.067 0.244-0.121l-0.002 0.001c0.121-0.097 0.198-0.245 0.198-0.411 0-0.002 0-0.005-0-0.007v0c0.001-0.008 0.001-0.018 0.001-0.028 0-0.072-0.016-0.14-0.046-0.201l0.001 0.003c-0.036-0.076-0.087-0.139-0.15-0.189l-0.001-0.001c-0.144-0.095-0.321-0.152-0.511-0.152-0.024 0-0.048 0.001-0.071 0.003l0.003-0h-0.521v1.145zM23.621 31.97h-0.341c-0.002 0-0.004 0-0.006 0-0.033 0-0.063-0.010-0.089-0.026l0.001 0c-0.024-0.016-0.043-0.038-0.056-0.063l-0-0.001-0.293-0.672h-1.472l-0.304 0.671c-0.012 0.026-0.031 0.047-0.053 0.062l-0.001 0c-0.026 0.018-0.058 0.028-0.092 0.028-0.002 0-0.003-0-0.005-0h-0.34l1.293-2.781h0.448l1.31 2.781zM21.488 30.937h1.215l-0.513-1.132c-0.035-0.072-0.068-0.159-0.094-0.249l-0.003-0.013-0.049 0.145c-0.016 0.044-0.032 0.084-0.047 0.117l-0.509 1.132zM25.483 29.201c0.025 0.012 0.047 0.029 0.064 0.050l0 0 1.886 2.096v-2.159h0.386v2.781h-0.215c-0.003 0-0.006 0-0.009 0-0.029 0-0.057-0.006-0.082-0.016l0.001 0.001c-0.027-0.014-0.049-0.031-0.069-0.052l-0-0-1.883-2.095c0.001 0.014 0.002 0.031 0.002 0.048s-0.001 0.034-0.002 0.050l0-0.002v2.067h-0.386v-2.781h0.228c0.027-0.001 0.053 0.003 0.078 0.012zM30.993 30.864v1.104h-0.431v-1.104l-1.191-1.675h0.386c0.003-0 0.006-0 0.010-0 0.031 0 0.059 0.009 0.084 0.024l-0.001-0c0.023 0.018 0.043 0.039 0.058 0.062l0.745 1.081c0.051 0.071 0.095 0.152 0.129 0.239l0.003 0.007 0.056-0.119c0.021-0.044 0.046-0.086 0.073-0.127l0.735-1.088c0.016-0.023 0.034-0.042 0.055-0.059l0.001-0c0.024-0.017 0.053-0.027 0.085-0.027 0.003 0 0.005 0 0.008 0l-0-0h0.39l-1.194 1.683zM13.474 24.521c0.187 0.020 0.377 0.037 0.569 0.052 2.907-1.111 5.366-2.929 7.070-5.229s2.577-4.975 2.51-7.696l-3.203-2.737c0.651 2.896 0.347 5.89-0.88 8.648-1.227 2.756-3.327 5.167-6.066 6.962z"></path>
<path fill="#8e8f99" d="M12.329 24.393l0.086 0.015c2.927-1.789 5.159-4.286 6.406-7.17s1.454-6.021 0.592-9.006l-4.564-3.899c1.846 3.205 2.589 6.791 2.142 10.341s-2.064 6.922-4.663 9.719zM27.805 14.862c-0.775 2.989-2.658 5.685-5.369 7.688-0.739 0.553-1.574 1.073-2.453 1.519l-0.098 0.045c2.207-0.554 4.236-1.534 5.93-2.864s3.008-2.975 3.84-4.808l-1.85-1.58z"></path>
<path fill="#8e8f99" d="M27.079 14.422l-2.635-2.251c-0.051 2.567-0.905 5.075-2.473 7.264s-3.796 3.98-6.448 5.185h0.013c0.591 0 1.182-0.030 1.769-0.090 2.48-0.865 4.67-2.24 6.375-4.004s2.874-3.861 3.4-6.103zM12.711 2.69l-3.142-2.69c-2.81 0.928-5.227 2.558-6.934 4.68-1.708 2.121-2.627 4.631-2.635 7.206 0.010 2.843 1.131 5.604 3.184 7.842s4.92 3.828 8.15 4.518c2.883-3.001 4.571-6.71 4.819-10.587s-0.958-7.719-3.442-10.971zM34.341 14.008c-0.012-3.375-1.585-6.608-4.379-8.994-2.792-2.386-6.576-3.731-10.526-3.741-0.010-0-0.022-0-0.034-0-1.896 0-3.719 0.31-5.422 0.883l0.12-0.035 19.245 16.443c0.627-1.338 0.993-2.905 0.995-4.557v-0.001z"></path>
</svg>
