<!-- Generated by IcoMoon.io -->
<svg version="1.1" xmlns="http://www.w3.org/2000/svg" width="28" height="32" viewBox="0 0 28 32">
<title>company</title>
<path fill="#8e8f99" d="M4.085 0l4.771 4.545-8.857-0.004v22.053h23.149v-8.432l4.766 4.541v-22.703h-23.83zM22.939 17.629l-13.528-12.889h13.528v12.889zM18.739 23.368h-15.076v-14.832h1.066v13.828h14.011v1.005zM6.67 30.681l-0.562-1.156h-0.464l0.814 1.529v0.891h0.42v-0.892l0.815-1.529h-0.462l-0.562 1.155zM8.741 29.525h0.099l0.914 2.42h-0.438l-0.196-0.566h-0.937l-0.195 0.566h-0.437l0.911-2.42h0.279zM8.297 31.048h0.709l-0.354-1.027-0.354 1.027zM11.222 30.646c-0.007-0.008-0.024-0.030-0.041-0.052l-0.011-0.015c-0.054-0.069-0.102-0.147-0.142-0.23l-0.003-0.008c-0.032-0.070-0.051-0.153-0.051-0.239 0-0 0-0 0-0.001v0c0-0.126 0.026-0.234 0.078-0.325s0.128-0.162 0.218-0.208l0.003-0.001c0.095-0.050 0.207-0.075 0.334-0.075 0.123 0 0.229 0.025 0.318 0.075 0.168 0.089 0.281 0.263 0.281 0.463 0 0.075-0.016 0.146-0.044 0.21l0.001-0.003c-0.030 0.067-0.069 0.124-0.116 0.173l0-0c-0.051 0.054-0.106 0.103-0.165 0.146l-0.003 0.002-0.168 0.123 0.479 0.565c0.066-0.126 0.104-0.276 0.104-0.435 0-0.006-0-0.012-0-0.018v0.001h0.346c0 0.118-0.012 0.229-0.035 0.334-0.032 0.152-0.094 0.287-0.179 0.403l0.002-0.003 0.354 0.419h-0.463l-0.141-0.165c-0.071 0.055-0.154 0.101-0.242 0.134l-0.007 0.002c-0.109 0.040-0.235 0.063-0.367 0.063-0.003 0-0.006 0-0.009-0h0c-0.161 0-0.3-0.029-0.417-0.088-0.113-0.055-0.206-0.138-0.271-0.24l-0.002-0.003c-0.060-0.098-0.095-0.216-0.095-0.343 0-0.004 0-0.008 0-0.012v0.001c0-0.099 0.020-0.185 0.061-0.259 0.042-0.076 0.097-0.146 0.168-0.21 0.066-0.059 0.14-0.118 0.225-0.178zM11.421 30.89l-0.050 0.036c-0.051 0.039-0.094 0.085-0.13 0.136l-0.001 0.002c-0.043 0.063-0.068 0.14-0.068 0.224 0 0.067 0.017 0.131 0.046 0.187l-0.001-0.002c0.032 0.058 0.078 0.105 0.133 0.137l0.002 0.001c0.060 0.032 0.13 0.051 0.205 0.051 0.004 0 0.009-0 0.013-0h-0.001c0.092 0 0.181-0.020 0.268-0.061 0.047-0.023 0.087-0.049 0.124-0.078l-0.002 0.001-0.538-0.633zM11.516 30.448l0.148-0.099c0.059-0.036 0.109-0.082 0.149-0.135l0.001-0.001c0.028-0.045 0.045-0.1 0.045-0.159 0-0.004-0-0.008-0-0.012l0 0.001c-0.004-0.13-0.111-0.233-0.241-0.233-0.005 0-0.010 0-0.014 0l0.001-0c-0.002-0-0.005-0-0.007-0-0.099 0-0.184 0.058-0.223 0.142l-0.001 0.002c-0.018 0.040-0.029 0.088-0.029 0.137 0 0.058 0.014 0.113 0.040 0.161l-0.001-0.002c0.025 0.052 0.060 0.107 0.105 0.165l0.027 0.035zM15.751 31.158h-0.416c-0.009 0.099-0.037 0.19-0.078 0.272l0.002-0.004c-0.038 0.072-0.096 0.128-0.166 0.164l-0.002 0.001c-0.077 0.036-0.167 0.057-0.262 0.057-0.009 0-0.018-0-0.027-0.001l0.001 0c-0.004 0-0.009 0-0.014 0-0.087 0-0.169-0.022-0.24-0.060l0.003 0.001c-0.071-0.040-0.13-0.096-0.172-0.163l-0.001-0.002c-0.045-0.073-0.079-0.158-0.098-0.249l-0.001-0.005c-0.020-0.096-0.032-0.207-0.032-0.32 0-0.004 0-0.009 0-0.013v0.001-0.204c0-0.129 0.012-0.243 0.035-0.343s0.060-0.185 0.108-0.254c0.045-0.066 0.105-0.119 0.176-0.155l0.003-0.001c0.069-0.034 0.15-0.053 0.236-0.053 0.005 0 0.009 0 0.014 0h-0.001c0.116 0 0.21 0.020 0.283 0.060s0.126 0.095 0.163 0.17c0.037 0.074 0.062 0.163 0.073 0.267h0.415c-0.015-0.16-0.063-0.307-0.139-0.435l0.003 0.005c-0.074-0.125-0.179-0.226-0.305-0.292l-0.004-0.002c-0.133-0.068-0.291-0.107-0.457-0.107-0.011 0-0.022 0-0.033 0l0.002-0c-0.152 0-0.289 0.027-0.411 0.080s-0.225 0.129-0.311 0.232c-0.087 0.101-0.155 0.221-0.197 0.353l-0.002 0.007c-0.046 0.14-0.068 0.298-0.068 0.472v0.202c0 0.174 0.022 0.331 0.067 0.472s0.111 0.261 0.196 0.361c0.085 0.099 0.188 0.175 0.307 0.229 0.12 0.053 0.255 0.080 0.404 0.080 0.195 0 0.361-0.035 0.497-0.106s0.242-0.168 0.317-0.291c0.075-0.124 0.12-0.266 0.133-0.424zM18.059 30.802v-0.133c0-0.182-0.024-0.347-0.073-0.49-0.045-0.143-0.115-0.267-0.206-0.373l0.001 0.001c-0.086-0.1-0.192-0.179-0.312-0.232l-0.006-0.002c-0.123-0.054-0.259-0.082-0.409-0.082-0.148 0-0.285 0.027-0.407 0.082-0.123 0.053-0.228 0.131-0.318 0.234-0.088 0.102-0.157 0.226-0.206 0.371-0.047 0.14-0.074 0.301-0.074 0.468 0 0.008 0 0.015 0 0.023v-0.001 0.133c0 0.183 0.024 0.347 0.074 0.492 0.048 0.143 0.119 0.266 0.21 0.372l-0.001-0.001c0.090 0.102 0.196 0.18 0.317 0.235 0.123 0.053 0.259 0.080 0.408 0.080s0.286-0.027 0.409-0.080c0.123-0.054 0.229-0.133 0.316-0.235 0.088-0.102 0.157-0.225 0.204-0.37s0.072-0.309 0.072-0.492zM17.642 30.666v0.136c0 0.136-0.014 0.255-0.040 0.36-0.023 0.1-0.062 0.189-0.115 0.267l0.002-0.003c-0.047 0.068-0.108 0.122-0.18 0.16l-0.003 0.001c-0.069 0.034-0.151 0.053-0.237 0.053-0.004 0-0.008-0-0.012-0h0.001c-0.003 0-0.007 0-0.011 0-0.086 0-0.167-0.020-0.239-0.055l0.003 0.001c-0.075-0.040-0.137-0.094-0.185-0.16l-0.001-0.002c-0.052-0.076-0.092-0.164-0.115-0.259l-0.001-0.005c-0.026-0.102-0.040-0.22-0.040-0.341 0-0.007 0-0.013 0-0.020v0.001-0.136c0-0.135 0.014-0.254 0.040-0.357s0.065-0.191 0.115-0.261c0.047-0.067 0.109-0.121 0.181-0.158l0.003-0.001c0.069-0.035 0.151-0.055 0.237-0.055 0.003 0 0.007 0 0.010 0h-0c0.092 0 0.174 0.018 0.248 0.054s0.134 0.088 0.184 0.16c0.051 0.069 0.090 0.157 0.115 0.261 0.027 0.104 0.040 0.223 0.040 0.357z"></path>
</svg>
