<!-- Generated by IcoMoon.io -->
<svg version="1.1" xmlns="http://www.w3.org/2000/svg" width="67" height="32" viewBox="0 0 67 32">
<title>company-5</title>
<path fill="#8e8f99" d="M33.799 15.248c-0.272-0.351-0.436-0.797-0.436-1.281 0-0.048 0.002-0.095 0.005-0.142l-0 0.006v-2.054c0-0.629 0.143-1.108 0.429-1.435s0.777-0.491 1.472-0.489c0.654 0 1.118 0.139 1.392 0.418 0.299 0.356 0.444 0.79 0.411 1.228v0.484h-1.169v-0.489c0.004-0.16-0.007-0.32-0.034-0.479-0.020-0.116-0.080-0.215-0.166-0.284l-0.001-0.001c-0.105-0.070-0.234-0.112-0.373-0.112-0.018 0-0.036 0.001-0.053 0.002l0.002-0c-0.015-0.001-0.033-0.002-0.051-0.002-0.147 0-0.283 0.044-0.397 0.12l0.003-0.002c-0.096 0.078-0.166 0.186-0.193 0.309l-0.001 0.004c-0.030 0.141-0.047 0.302-0.047 0.468 0 0.014 0 0.028 0 0.042l-0-0.002v2.492c-0.002 0.028-0.003 0.061-0.003 0.094 0 0.222 0.057 0.431 0.157 0.613l-0.003-0.007c0.061 0.075 0.139 0.134 0.23 0.169l0.004 0.001c0.095 0.036 0.199 0.050 0.302 0.039 0.149 0.011 0.299-0.030 0.414-0.113 0.090-0.075 0.153-0.18 0.174-0.3l0-0.003c0.027-0.165 0.040-0.332 0.036-0.499v-0.506h1.17v0.462c0.002 0.036 0.004 0.078 0.004 0.12 0 0.444-0.154 0.853-0.412 1.174l0.003-0.004c-0.268 0.305-0.725 0.457-1.399 0.457s-1.181-0.163-1.47-0.501zM38.667 15.27c-0.295-0.32-0.443-0.786-0.443-1.402v-2.16c0-0.61 0.148-1.072 0.443-1.385s0.789-0.469 1.482-0.468c0.688 0 1.179 0.156 1.474 0.468 0.296 0.314 0.446 0.775 0.446 1.385v2.16c0 0.61-0.15 1.078-0.45 1.4s-0.789 0.482-1.47 0.482-1.184-0.163-1.482-0.48zM40.694 14.751c0.106-0.201 0.154-0.42 0.14-0.639v-2.645c0.001-0.021 0.002-0.045 0.002-0.070 0-0.204-0.052-0.395-0.143-0.562l0.003 0.006c-0.062-0.077-0.142-0.136-0.234-0.172l-0.004-0.001c-0.068-0.027-0.147-0.042-0.229-0.042-0.028 0-0.056 0.002-0.083 0.005l0.003-0c-0.023-0.003-0.050-0.005-0.078-0.005-0.083 0-0.163 0.016-0.236 0.044l0.004-0.002c-0.097 0.036-0.178 0.095-0.24 0.17l-0.001 0.001c-0.107 0.196-0.155 0.411-0.14 0.627v2.658c-0.015 0.22 0.033 0.439 0.14 0.639 0.068 0.067 0.152 0.121 0.247 0.159 0.089 0.036 0.192 0.057 0.3 0.057s0.211-0.021 0.306-0.059l-0.006 0.002c0.095-0.038 0.178-0.092 0.247-0.159v-0.013zM43.476 9.917h1.259l0.947 3.986 0.968-3.986h1.225l0.124 5.753h-0.906l-0.097-3.998-0.934 3.998h-0.726l-0.969-4.013-0.090 4.013h-0.915l0.114-5.753zM49.41 9.917h1.961c1.129 0 1.695 0.545 1.695 1.633 0 1.043-0.595 1.564-1.785 1.563h-0.668v2.557h-1.21l0.007-5.754zM51.086 12.376c0.119 0.013 0.241 0.004 0.356-0.028 0.115-0.031 0.22-0.083 0.31-0.154 0.112-0.152 0.18-0.343 0.18-0.55 0-0.035-0.002-0.070-0.006-0.104l0 0.004c0.001-0.020 0.001-0.043 0.001-0.066 0-0.162-0.021-0.319-0.062-0.469l0.003 0.013c-0.019-0.061-0.050-0.114-0.090-0.158l0 0c-0.042-0.047-0.093-0.086-0.15-0.115l-0.003-0.001c-0.14-0.059-0.304-0.093-0.475-0.093-0.023 0-0.046 0.001-0.069 0.002l0.003-0h-0.469v1.719h0.469zM54.812 9.917h1.3l1.334 5.753h-1.129l-0.263-1.326h-1.16l-0.272 1.327h-1.145l1.334-5.754zM55.923 13.678l-0.453-2.415-0.453 2.415h0.905zM58.523 9.917h0.848l1.621 3.282v-3.282h1.005v5.753h-0.806l-1.632-3.425v3.425h-1.038l0.002-5.753zM64.351 13.477l-1.348-3.552h1.136l0.823 2.281 0.772-2.281h1.111l-1.332 3.552v2.193h-1.162v-2.193zM35.668 18.186v0.301h-0.988v2.337h-0.413v-2.337h-0.993v-0.301h2.394zM38.764 20.824h-0.32c-0.002 0-0.005 0-0.008 0-0.030 0-0.058-0.009-0.081-0.025l0 0c-0.023-0.014-0.042-0.035-0.053-0.060l-0-0.001-0.286-0.627h-1.37l-0.286 0.627c-0.009 0.028-0.023 0.052-0.043 0.071v0c-0.023 0.016-0.052 0.025-0.082 0.025-0.003 0-0.006-0-0.008-0l0 0h-0.32l1.211-2.638h0.421l1.225 2.628zM36.759 19.845h1.143l-0.484-1.074c-0.031-0.068-0.062-0.15-0.087-0.235l-0.003-0.014c-0.017 0.050-0.031 0.098-0.045 0.14l-0.044 0.111-0.479 1.072zM40.851 20.565c0.076 0.004 0.152 0.004 0.228 0 0.065-0.006 0.13-0.016 0.194-0.031 0.070-0.015 0.128-0.032 0.185-0.052l-0.010 0.003c0.053-0.018 0.107-0.041 0.162-0.064v-0.594h-0.484c-0.002 0-0.004 0-0.006 0-0.011 0-0.021-0.002-0.030-0.005l0.001 0c-0.011-0.004-0.021-0.009-0.030-0.016l0 0c-0.008-0.006-0.014-0.013-0.018-0.021l-0-0c-0.004-0.007-0.006-0.015-0.006-0.024 0-0.001 0-0.002 0-0.003v0-0.203h0.939v1.011c-0.147 0.092-0.317 0.166-0.498 0.213l-0.013 0.003c-0.1 0.025-0.201 0.043-0.303 0.054-0.106 0.011-0.229 0.017-0.353 0.017-0 0-0 0-0 0v0c-0.004 0-0.009 0-0.014 0-0.213 0-0.418-0.036-0.609-0.103l0.013 0.004c-0.187-0.065-0.347-0.158-0.486-0.277l0.002 0.002c-0.13-0.115-0.235-0.254-0.31-0.41l-0.003-0.008c-0.070-0.156-0.111-0.338-0.111-0.53 0-0.006 0-0.013 0-0.019v0.001c-0-0.005-0-0.011-0-0.016 0-0.193 0.040-0.377 0.112-0.544l-0.003 0.009c0.070-0.156 0.176-0.299 0.313-0.418 0.138-0.119 0.303-0.212 0.484-0.274 0.208-0.068 0.428-0.1 0.649-0.098 0.113 0 0.225 0.007 0.336 0.023 0.099 0.014 0.195 0.036 0.288 0.067 0.085 0.028 0.166 0.063 0.242 0.105s0.145 0.087 0.211 0.138l-0.116 0.164c-0.010 0.015-0.023 0.027-0.039 0.035l-0.001 0c-0.016 0.009-0.035 0.014-0.055 0.014h-0c-0.028-0.001-0.054-0.009-0.076-0.022l0.001 0c-0.049-0.023-0.087-0.044-0.125-0.066l0.007 0.004c-0.046-0.025-0.099-0.049-0.155-0.069l-0.008-0.002c-0.062-0.022-0.136-0.042-0.213-0.057l-0.009-0.001c-0.087-0.015-0.188-0.023-0.291-0.023-0.006 0-0.011 0-0.017 0h0.001c-0.004-0-0.009-0-0.014-0-0.162 0-0.318 0.027-0.463 0.076l0.010-0.003c-0.138 0.048-0.256 0.119-0.356 0.209l0.001-0.001c-0.101 0.095-0.178 0.206-0.226 0.329-0.051 0.131-0.081 0.282-0.081 0.44s0.030 0.309 0.084 0.448l-0.003-0.008c0.053 0.124 0.136 0.237 0.242 0.332 0.1 0.090 0.22 0.161 0.353 0.209 0.154 0.046 0.317 0.063 0.479 0.052zM44.71 20.523h1.323v0.301h-1.727v-2.638h0.414l-0.010 2.337zM47.408 20.824h-0.414v-2.638h0.414v2.638zM48.947 18.198c0.025 0.012 0.046 0.028 0.064 0.048l0 0 1.769 1.989c-0.001-0.014-0.002-0.030-0.002-0.047s0.001-0.033 0.002-0.049l-0 0.002v-1.966h0.361v2.65h-0.208c-0.004 0-0.009 0-0.013 0-0.028 0-0.054-0.006-0.077-0.016l0.001 0c-0.025-0.013-0.047-0.030-0.065-0.050l-0-0-1.767-1.988v2.052h-0.346v-2.639h0.215c0.023 0 0.047 0.004 0.068 0.012zM54.19 18.186v0.29h-1.468v0.871h1.188v0.28h-1.188v0.9h1.467v0.29h-1.894v-2.632h1.894zM10.805 1.891l18.384 4.504v15.783l-18.384-4.501v-15.787zM9.626 0.545v17.897l20.74 5.083v-17.896l-20.74-5.084z"></path>
<path fill="#8e8f99" d="M20.742 31.834l-20.742-5.087v-17.896l20.742 5.084v17.899z"></path>
<path fill="#8e8f99" d="M9.97 1.688l18.144 4.447-7.716 6.66-18.147-4.45 7.718-6.657zM9.626 0.545l-9.626 8.306 20.742 5.085 9.624-8.306-20.74-5.086zM21.909 30.827l8.457-7.299-8.457-2.074v9.374z"></path>
</svg>
